<svg viewBox="0 0 330 200" xmlns="http://www.w3.org/2000/svg"><g><g><g><g><g><line x1="51.5625" y1="177" x2="46.5625" y2="177" style="visibility: inherit;" fill="rgb(0, 0, 0)" stroke="rgb(204, 204, 204)" stroke-width="1px"></line><line x1="51.5625" y1="160.9090909090909" x2="46.5625" y2="160.9090909090909" style="visibility: inherit;" fill="rgb(0, 0, 0)" stroke="rgb(204, 204, 204)" stroke-width="1px"></line><line x1="51.5625" y1="144.8181818181818" x2="46.5625" y2="144.8181818181818" style="visibility: inherit;" fill="rgb(0, 0, 0)" stroke="rgb(204, 204, 204)" stroke-width="1px"></line><line x1="51.5625" y1="128.72727272727272" x2="46.5625" y2="128.72727272727272" style="visibility: inherit;" fill="rgb(0, 0, 0)" stroke="rgb(204, 204, 204)" stroke-width="1px"></line><line x1="51.5625" y1="112.63636363636364" x2="46.5625" y2="112.63636363636364" style="visibility: inherit;" fill="rgb(0, 0, 0)" stroke="rgb(204, 204, 204)" stroke-width="1px"></line><line x1="51.5625" y1="96.54545454545453" x2="46.5625" y2="96.54545454545453" style="visibility: inherit;" fill="rgb(0, 0, 0)" stroke="rgb(204, 204, 204)" stroke-width="1px"></line><line x1="51.5625" y1="80.45454545454547" x2="46.5625" y2="80.45454545454547" style="visibility: inherit;" fill="rgb(0, 0, 0)" stroke="rgb(204, 204, 204)" stroke-width="1px"></line><line x1="51.5625" y1="64.36363636363639" x2="46.5625" y2="64.36363636363639" style="visibility: inherit;" fill="rgb(0, 0, 0)" stroke="rgb(204, 204, 204)" stroke-width="1px"></line><line x1="51.5625" y1="48.27272727272729" x2="46.5625" y2="48.27272727272729" style="visibility: inherit;" fill="rgb(0, 0, 0)" stroke="rgb(204, 204, 204)" stroke-width="1px"></line><line x1="51.5625" y1="32.181818181818194" x2="46.5625" y2="32.181818181818194" style="visibility: inherit;" fill="rgb(0, 0, 0)" stroke="rgb(204, 204, 204)" stroke-width="1px"></line><line x1="51.5625" y1="16.090909090909097" x2="46.5625" y2="16.090909090909097" style="visibility: inherit;" fill="rgb(0, 0, 0)" stroke="rgb(204, 204, 204)" stroke-width="1px"></line><line x1="51.5625" y1="0" x2="46.5625" y2="0" style="visibility: inherit;" fill="rgb(0, 0, 0)" stroke="rgb(204, 204, 204)" stroke-width="1px"></line></g><g transform="translate(41.5625, 0)"><text x="0" y="177" dx="0em" dy="0.3em" style="text-anchor: end; visibility: hidden; font-family: Roboto, sans-serif; font-size: 12px; font-weight: 200;" fill="rgb(33, 33, 33)" stroke="none" stroke-width="1px">-0.1</text><text x="0" y="160.9090909090909" dx="0em" dy="0.3em" style="text-anchor: end; visibility: inherit; font-family: Roboto, sans-serif; font-size: 12px; font-weight: 200;" fill="rgb(33, 33, 33)" stroke="none" stroke-width="1px">0</text><text x="0" y="144.8181818181818" dx="0em" dy="0.3em" style="text-anchor: end; visibility: hidden; font-family: Roboto, sans-serif; font-size: 12px; font-weight: 200;" fill="rgb(33, 33, 33)" stroke="none" stroke-width="1px">0.1</text><text x="0" y="128.72727272727272" dx="0em" dy="0.3em" style="text-anchor: end; visibility: inherit; font-family: Roboto, sans-serif; font-size: 12px; font-weight: 200;" fill="rgb(33, 33, 33)" stroke="none" stroke-width="1px">0.2</text><text x="0" y="112.63636363636364" dx="0em" dy="0.3em" style="text-anchor: end; visibility: hidden; font-family: Roboto, sans-serif; font-size: 12px; font-weight: 200;" fill="rgb(33, 33, 33)" stroke="none" stroke-width="1px">0.3</text><text x="0" y="96.54545454545453" dx="0em" dy="0.3em" style="text-anchor: end; visibility: inherit; font-family: Roboto, sans-serif; font-size: 12px; font-weight: 200;" fill="rgb(33, 33, 33)" stroke="none" stroke-width="1px">0.4</text><text x="0" y="80.45454545454547" dx="0em" dy="0.3em" style="text-anchor: end; visibility: hidden; font-family: Roboto, sans-serif; font-size: 12px; font-weight: 200;" fill="rgb(33, 33, 33)" stroke="none" stroke-width="1px">0.5</text><text x="0" y="64.36363636363639" dx="0em" dy="0.3em" style="text-anchor: end; visibility: inherit; font-family: Roboto, sans-serif; font-size: 12px; font-weight: 200;" fill="rgb(33, 33, 33)" stroke="none" stroke-width="1px">0.6</text><text x="0" y="48.27272727272729" dx="0em" dy="0.3em" style="text-anchor: end; visibility: hidden; font-family: Roboto, sans-serif; font-size: 12px; font-weight: 200;" fill="rgb(33, 33, 33)" stroke="none" stroke-width="1px">0.7</text><text x="0" y="32.181818181818194" dx="0em" dy="0.3em" style="text-anchor: end; visibility: inherit; font-family: Roboto, sans-serif; font-size: 12px; font-weight: 200;" fill="rgb(33, 33, 33)" stroke="none" stroke-width="1px">0.8</text><text x="0" y="16.090909090909097" dx="0em" dy="0.3em" style="text-anchor: end; visibility: hidden; font-family: Roboto, sans-serif; font-size: 12px; font-weight: 200;" fill="rgb(33, 33, 33)" stroke="none" stroke-width="1px">0.9</text><text x="0" y="0" dx="0em" dy="0.3em" style="text-anchor: end; visibility: hidden; font-family: Roboto, sans-serif; font-size: 12px; font-weight: 200;" fill="rgb(33, 33, 33)" stroke="none" stroke-width="1px">1</text></g><line x1="51.5625" y1="0" x2="51.5625" y2="177" fill="rgb(0, 0, 0)" stroke="rgb(204, 204, 204)" stroke-width="1px"></line></g></g><g transform="translate(51, 0)" clip-path="url(#clip_0)"><clipPath id="clip_0"><rect width="278" height="177"></rect></clipPath><g><g><g><line x1="0" y1="0" x2="0" y2="177" fill="rgb(0, 0, 0)" stroke="rgb(66, 66, 66)" stroke-width="1px" opacity="0.25"></line><line x1="34.8046875" y1="0" x2="34.8046875" y2="177" fill="rgb(0, 0, 0)" stroke="rgb(66, 66, 66)" stroke-width="1px" opacity="0.25"></line><line x1="69.609375" y1="0" x2="69.609375" y2="177" fill="rgb(0, 0, 0)" stroke="rgb(66, 66, 66)" stroke-width="1px" opacity="0.25"></line><line x1="104.4140625" y1="0" x2="104.4140625" y2="177" fill="rgb(0, 0, 0)" stroke="rgb(66, 66, 66)" stroke-width="1px" opacity="0.25"></line><line x1="139.21875" y1="0" x2="139.21875" y2="177" fill="rgb(0, 0, 0)" stroke="rgb(66, 66, 66)" stroke-width="1px" opacity="0.25"></line><line x1="174.0234375" y1="0" x2="174.0234375" y2="177" fill="rgb(0, 0, 0)" stroke="rgb(66, 66, 66)" stroke-width="1px" opacity="0.25"></line><line x1="208.828125" y1="0" x2="208.828125" y2="177" fill="rgb(0, 0, 0)" stroke="rgb(66, 66, 66)" stroke-width="1px" opacity="0.25"></line><line x1="243.6328125" y1="0" x2="243.6328125" y2="177" fill="rgb(0, 0, 0)" stroke="rgb(66, 66, 66)" stroke-width="1px" opacity="0.25"></line><line x1="278.4375" y1="0" x2="278.4375" y2="177" fill="rgb(0, 0, 0)" stroke="rgb(66, 66, 66)" stroke-width="1px" opacity="0.25"></line></g><g><line x1="0" y1="177" x2="278.4375" y2="177" fill="rgb(0, 0, 0)" stroke="rgb(66, 66, 66)" stroke-width="1px" opacity="0.25"></line><line x1="0" y1="160.9090909090909" x2="278.4375" y2="160.9090909090909" fill="rgb(0, 0, 0)" stroke="rgb(66, 66, 66)" stroke-width="1px" opacity="0.25"></line><line x1="0" y1="144.8181818181818" x2="278.4375" y2="144.8181818181818" fill="rgb(0, 0, 0)" stroke="rgb(66, 66, 66)" stroke-width="1px" opacity="0.25"></line><line x1="0" y1="128.72727272727272" x2="278.4375" y2="128.72727272727272" fill="rgb(0, 0, 0)" stroke="rgb(66, 66, 66)" stroke-width="1px" opacity="0.25"></line><line x1="0" y1="112.63636363636364" x2="278.4375" y2="112.63636363636364" fill="rgb(0, 0, 0)" stroke="rgb(66, 66, 66)" stroke-width="1px" opacity="0.25"></line><line x1="0" y1="96.54545454545453" x2="278.4375" y2="96.54545454545453" fill="rgb(0, 0, 0)" stroke="rgb(66, 66, 66)" stroke-width="1px" opacity="0.25"></line><line x1="0" y1="80.45454545454547" x2="278.4375" y2="80.45454545454547" fill="rgb(0, 0, 0)" stroke="rgb(66, 66, 66)" stroke-width="1px" opacity="0.25"></line><line x1="0" y1="64.36363636363639" x2="278.4375" y2="64.36363636363639" fill="rgb(0, 0, 0)" stroke="rgb(66, 66, 66)" stroke-width="1px" opacity="0.25"></line><line x1="0" y1="48.27272727272729" x2="278.4375" y2="48.27272727272729" fill="rgb(0, 0, 0)" stroke="rgb(66, 66, 66)" stroke-width="1px" opacity="0.25"></line><line x1="0" y1="32.181818181818194" x2="278.4375" y2="32.181818181818194" fill="rgb(0, 0, 0)" stroke="rgb(66, 66, 66)" stroke-width="1px" opacity="0.25"></line><line x1="0" y1="16.090909090909097" x2="278.4375" y2="16.090909090909097" fill="rgb(0, 0, 0)" stroke="rgb(66, 66, 66)" stroke-width="1px" opacity="0.25"></line><line x1="0" y1="0" x2="278.4375" y2="0" fill="rgb(0, 0, 0)" stroke="rgb(66, 66, 66)" stroke-width="1px" opacity="0.25"></line></g></g></g><g><g><line x1="0" y1="160.9090909090909" x2="278.4375" y2="160.9090909090909" fill="rgb(0, 0, 0)" stroke="rgb(153, 153, 153)" stroke-width="1.5px"></line></g></g><g><g><line x1="34.8046875" y1="0" x2="34.8046875" y2="177" fill="rgb(0, 0, 0)" stroke="rgb(153, 153, 153)" stroke-width="1.5px"></line></g></g><g><g><g><g><g><path stroke="rgb(51, 187, 238)" stroke-width="2px" d="M35.65740234375,16.794340447946034L36.52751953125,131.4989237080921L37.39763671875,145.5836983770132L38.26775390625,157.86770595406944L39.13787109375,160.10145621924576L40.00798828125,158.98675129664215L40.87810546875,159.6091384626925L41.74822265625,160.72859151341783L42.61833984375,160.6078904935963L43.48845703125,160.75394006768792L44.35857421875,160.77661817570598L45.22869140625,160.84989005562173L46.09880859375,160.83340087868484L46.96892578125,160.84199081085072L47.83904296875,160.8594161242945L48.70916015625,160.86357435407328L49.57927734375,160.78024430560288L50.44939453125,160.87624860779297L51.31951171875,160.87827000617506L52.18962890625,160.8702616294613L53.05974609375,160.8551994638401L53.92986328125,160.86378512504533L54.79998046875,160.8734241072406L55.67009765625,160.88788768976386L56.54021484375,160.88130316329296L57.41033203125,160.87418343206411L58.28044921875,160.8924003530807L59.15056640625,160.88771810874195L60.02068359375,160.88913841858314L60.89080078125,160.88934807732585L61.76091796875,160.8878697395531L62.63103515625,160.8948750059922L63.50115234375,160.9011346912501L64.37126953125,160.88551578225716L65.24138671875001,160.8976235787453L66.11150390625,160.89298738889656L66.98162109375001,160.89484511043835L67.85173828125001,160.88978164539597L68.72185546875,160.89514358947451L69.59197265625001,160.89648826420836L70.46208984375001,160.8950872427654L71.33220703125001,160.8972340912508L72.20232421875001,160.89719092153246L73.07244140625,160.9035884711292L73.94255859375,160.89196422220002L74.81267578125001,160.89175733115223L75.68279296875001,160.89791544996842L76.55291015625001,160.9025600869063L77.42302734375,160.89718003456338L78.29314453125,160.9014105662738L79.16326171875001,160.90514135812225L80.03337890625001,160.90539557218688L80.90349609375001,160.90192063816093L81.77361328125,160.9035440750317L82.64373046875,160.90290157058254L83.51384765625001,160.90193845256263L84.38396484375001,160.90015556942078L85.25408203125001,160.90395465800447L86.12419921875,160.90677952442175L86.99431640625,160.9013967664346L87.86443359375001,160.90705347763023L88.73455078125001,160.90665370377047L89.60466796875001,160.90655657336768L90.47478515625,160.90752104142913L91.34490234375,160.90285104200368L92.21501953125001,160.90516652816487L93.08513671875001,160.90670340359213L93.95525390625001,160.90686827666434L94.82537109375,160.90439480578922L95.69548828125,160.90656498591918L96.56560546875001,160.90569702731457L97.43572265625001,160.90751741658593L98.30583984375001,160.90428846817633L99.17595703125,160.9074400926461L100.04607421875,160.90555332260092L100.91619140625001,160.90660633245946L101.78630859375001,160.90503863349858L102.65642578125001,160.90786328156767L103.52654296875,160.90579894879158L104.39666015625,160.90551424559388L105.26677734375001,160.90708764194957L106.13689453125001,160.90752403200895L107.00701171875001,160.9071020309776L107.87712890625,160.9073016464357L108.74724609375,160.90648533068816L109.61736328125001,160.9076738769603L110.48748046875001,160.9046379824411L111.35759765625001,160.90732741254544L112.22771484375,160.90745090453973L113.09783203125,160.907320224617L113.96794921875001,160.906333638119L114.83806640625001,160.90745209272262L115.70818359375001,160.90773800986014L116.57830078125,160.90724110003646L117.44841796875,160.90746947013528L118.31853515625001,160.90693426815795L119.18865234375001,160.9074053310889L120.05876953125001,160.9074317278034L120.92888671875,160.9084213458581L121.79900390625,160.9079040530415L122.66912109375001,160.90807008553963L123.53923828125001,160.9082229370225L124.40935546875001,160.90832723793855L125.27947265625,160.90722613499068L126.14958984375,160.90736457871324L127.01970703125001,160.90749884996595L127.88982421875001,160.90845551449465L128.75994140625,160.90755278811312L129.63005859375,160.90765409449804L130.50017578125,160.9084387315393L131.37029296875,160.90829786608373L132.24041015625,160.90696720595176L133.11052734375,160.9087030777205L133.98064453125,160.90856041352666L134.85076171875,160.90811684080728L135.72087890625,160.9082643019292L136.59099609375,160.90792865540814L137.46111328125,160.90798077967023L138.33123046875,160.90827150258974L139.20134765625,160.90843453902008L140.07146484375,160.90860956638028L140.94158203125,160.9082421185882L141.81169921875,160.90868029904414L142.68181640625,160.90746951140483L143.55193359375002,160.90839138035088L144.42205078125,160.90870667380676L145.29216796875,160.9079909723009L146.16228515625,160.9088043806297L147.03240234375,160.90853104661102L147.90251953125002,160.90864433397428L148.77263671875,160.90818218113452L149.64275390625,160.90836859808903L150.51287109375,160.9082355299465L151.38298828125,160.90836320750853L152.25310546875002,160.9087816022826L153.12322265625,160.90859937788392L153.99333984375,160.90854603038906L154.86345703125,160.90813783025789L155.73357421875,160.90863954004632L156.60369140625002,160.90853464211187L157.47380859375,160.90894404831673L158.34392578125,160.90882236398784L159.21404296875,160.9087702137859L160.08416015625,160.9087114702592L160.95427734375002,160.90889489513384L161.82439453125,160.9088343522103L162.69451171875,160.90884634110964L163.56462890625,160.90865632329434L164.43474609375,160.908921269805L165.30486328125002,160.9088978921163L166.17498046875,160.90893985223948L167.04509765625,160.9088349518629L167.91521484375,160.90870487667829L168.78533203125,160.90886072719243L169.65544921875002,160.9089584345825L170.52556640625,160.90884334502354L171.39568359375,160.9088745149215L172.26580078125,160.9085334443799L173.13591796875,160.9089218691649L174.00603515625002,160.90895903399726L174.87615234375,160.90878400149666L175.74626953125,160.90898301121968L176.61638671875,160.90891287783342L177.48650390625,160.9088433438162L178.35662109375002,160.90886851982242L179.22673828125,160.90887151760978L180.09685546875,160.90888950029105L180.96697265625,160.90883555215575L181.83708984375,160.90882835833688L182.70720703125002,160.90899979531835L183.57732421875,160.90890748375892L184.44744140625,160.90890268776383L185.31755859375,160.90881936715175L186.18767578125,160.90894644616796L187.05779296875002,160.90890808258834L187.92791015625,160.90897761640431L188.79802734375,160.90899380102417L189.66814453125,160.90891347743113L190.53826171875,160.90887091810353L191.40837890625002,160.90898900565105L192.27849609375,160.90899320160025L193.14861328125,160.90903036639148L194.01873046875,160.90895064199825L194.88884765625,160.90898241193295L195.75896484375002,160.90902317321743L196.62908203125,160.9090273692261L197.49919921875,160.90903396298535L198.36931640625,160.90898181252732L199.23943359375,160.90892246894555L200.10955078125002,160.9089740199339L200.97966796875,160.909002792502L201.84978515625,160.90898121311253L202.71990234375,160.90904834937L203.59001953125,160.9089782158191L204.46013671875002,160.90895663635644L205.33025390625,160.90901358231565L206.20037109375,160.9090081873814L207.07048828125,160.90898840621796L207.94060546875,160.9089794146761L208.81072265625002,160.90903875844995L209.68083984375,160.9089800142098L210.55095703125,160.908977616386L211.42107421875,160.90904595164227L212.29119140625,160.90904355390083L213.16130859375002,160.90903935796078L214.03142578125,160.9090183778077L214.90154296875,160.9090495482316L215.77166015625,160.90901777833804L216.64177734375,160.9090225738118L217.51189453125002,160.9090567414239L218.38201171875,160.90903456242756L219.25212890625,160.9089728212507L220.12224609375,160.90900818742713L220.99236328125,160.9090585397117L221.86248046875002,160.90905314482316L222.73259765625,160.90902197433755L223.60271484375,160.9090513465354L224.47283203125,160.90905913914935L225.34294921875,160.90905374425395L226.21306640625002,160.9090687300717L227.08318359375,160.9090351619384L227.95330078125,160.90905134652166L228.82341796875,160.90904115621882L229.69353515625,160.90905494313384L230.56365234375002,160.90905014771954L231.43376953125,160.9090465510662L232.30388671875,160.90906813064777L233.17400390625,160.9089866079279L234.04412109375,160.90904715051758L234.91423828125002,160.90904834937L235.78435546875,160.9090585397277L236.65447265625,160.9090651334801L237.52458984375,160.90907292610208L238.39470703125,160.9090495482316L239.26482421875002,160.90906932950477L240.13494140625,160.9090651334824L241.00505859375,160.90908011929784L241.87517578125,160.90907412496708L242.74529296875,160.90906153688394L243.61541015625002,160.90904115617766L244.48552734375,160.90906873007626L245.35564453125,160.90908071872977L246.22576171875,160.9090633351809L247.09587890625,160.9090765226994L247.96599609375002,160.9090765226994L248.83611328125,160.9090759232663L249.70623046875,160.90908071872977L250.57634765625,160.90907951986364L251.44646484375,160.90907892043168L252.31658203125002,160.90906453404475L253.18669921875,160.9090741249728L254.05681640625,160.90908131816286L254.92693359375,160.90908131816227L255.79705078125,160.90905434373278L256.66716796875,160.9090735255386L257.53728515625,160.90908371589515L258.40740234375,160.90907532383667L259.27751953125,160.90907532383324L260.14763671875,160.90906873007626L261.01775390625,160.90907772156555L261.88787109375,160.90908071872977L262.75798828125,160.9090879119258L263.62810546875,160.90906633234624L264.49822265625,160.90908491476074L265.36833984375,160.90907292610208L266.23845703125,160.90908191759706L267.10857421875,160.90908671305965L267.97869140625,160.9090861136269L268.84880859375,160.90908971022483L269.71892578125,160.9090801192967L270.58904296875,160.9090747244013" style="fill: none;" fill="none"></path></g></g></g></g></g></g><g transform="translate(51, 177)" clip-path="url(#clip_1)"><clipPath id="clip_1"><rect width="278" height="23"></rect></clipPath><g><g><line x1="0" y1="0" x2="0" y2="5" style="visibility: inherit;" fill="rgb(0, 0, 0)" stroke="rgb(204, 204, 204)" stroke-width="1px"></line><line x1="34.8046875" y1="0" x2="34.8046875" y2="5" style="visibility: inherit;" fill="rgb(0, 0, 0)" stroke="rgb(204, 204, 204)" stroke-width="1px"></line><line x1="69.609375" y1="0" x2="69.609375" y2="5" style="visibility: inherit;" fill="rgb(0, 0, 0)" stroke="rgb(204, 204, 204)" stroke-width="1px"></line><line x1="104.4140625" y1="0" x2="104.4140625" y2="5" style="visibility: inherit;" fill="rgb(0, 0, 0)" stroke="rgb(204, 204, 204)" stroke-width="1px"></line><line x1="139.21875" y1="0" x2="139.21875" y2="5" style="visibility: inherit;" fill="rgb(0, 0, 0)" stroke="rgb(204, 204, 204)" stroke-width="1px"></line><line x1="174.0234375" y1="0" x2="174.0234375" y2="5" style="visibility: inherit;" fill="rgb(0, 0, 0)" stroke="rgb(204, 204, 204)" stroke-width="1px"></line><line x1="208.828125" y1="0" x2="208.828125" y2="5" style="visibility: inherit;" fill="rgb(0, 0, 0)" stroke="rgb(204, 204, 204)" stroke-width="1px"></line><line x1="243.6328125" y1="0" x2="243.6328125" y2="5" style="visibility: inherit;" fill="rgb(0, 0, 0)" stroke="rgb(204, 204, 204)" stroke-width="1px"></line><line x1="278.4375" y1="0" x2="278.4375" y2="5" style="visibility: inherit;" fill="rgb(0, 0, 0)" stroke="rgb(204, 204, 204)" stroke-width="1px"></line></g><g transform="translate(0, 8)"><text x="0" y="0" dx="0em" dy="0.95em" style="text-anchor: middle; visibility: hidden; font-family: Roboto, sans-serif; font-size: 12px; font-weight: 200;" fill="rgb(33, 33, 33)" stroke="none" stroke-width="1px">-2k</text><text x="34.8046875" y="0" dx="0em" dy="0.95em" style="text-anchor: middle; visibility: inherit; font-family: Roboto, sans-serif; font-size: 12px; font-weight: 200;" fill="rgb(33, 33, 33)" stroke="none" stroke-width="1px">0</text><text x="69.609375" y="0" dx="0em" dy="0.95em" style="text-anchor: middle; visibility: inherit; font-family: Roboto, sans-serif; font-size: 12px; font-weight: 200;" fill="rgb(33, 33, 33)" stroke="none" stroke-width="1px">2k</text><text x="104.4140625" y="0" dx="0em" dy="0.95em" style="text-anchor: middle; visibility: inherit; font-family: Roboto, sans-serif; font-size: 12px; font-weight: 200;" fill="rgb(33, 33, 33)" stroke="none" stroke-width="1px">4k</text><text x="139.21875" y="0" dx="0em" dy="0.95em" style="text-anchor: middle; visibility: inherit; font-family: Roboto, sans-serif; font-size: 12px; font-weight: 200;" fill="rgb(33, 33, 33)" stroke="none" stroke-width="1px">6k</text><text x="174.0234375" y="0" dx="0em" dy="0.95em" style="text-anchor: middle; visibility: inherit; font-family: Roboto, sans-serif; font-size: 12px; font-weight: 200;" fill="rgb(33, 33, 33)" stroke="none" stroke-width="1px">8k</text><text x="208.828125" y="0" dx="0em" dy="0.95em" style="text-anchor: middle; visibility: inherit; font-family: Roboto, sans-serif; font-size: 12px; font-weight: 200;" fill="rgb(33, 33, 33)" stroke="none" stroke-width="1px">10k</text><text x="243.6328125" y="0" dx="0em" dy="0.95em" style="text-anchor: middle; visibility: inherit; font-family: Roboto, sans-serif; font-size: 12px; font-weight: 200;" fill="rgb(33, 33, 33)" stroke="none" stroke-width="1px">12k</text><text x="278.4375" y="0" dx="0em" dy="0.95em" style="text-anchor: middle; visibility: hidden; font-family: Roboto, sans-serif; font-size: 12px; font-weight: 200;" fill="rgb(33, 33, 33)" stroke="none" stroke-width="1px">14k</text></g><line x1="0" y1="0" x2="278.4375" y2="0" fill="rgb(0, 0, 0)" stroke="rgb(204, 204, 204)" stroke-width="1px"></line></g></g></g></g></svg>